<svg id="Layer_1" data-name="Layer 1" xmlns="http://www.w3.org/2000/svg" viewBox="0 0 320 35.69"><defs><style>.cls-1{fill:none;stroke:#e0e0e0;stroke-miterlimit:10;stroke-width:2px;}</style></defs><title>bridg</title><line class="cls-1" y1="8.13" x2="320" y2="8.13"/><polyline class="cls-1" points="0 29.54 10.65 10.13 21.31 29.54"/><polyline class="cls-1" points="21.31 29.54 31.96 10.13 42.62 29.54"/><polyline class="cls-1" points="42.62 29.54 53.27 10.13 63.92 29.54"/><polyline class="cls-1" points="63.92 29.54 74.58 10.13 85.23 29.54"/><polyline class="cls-1" points="85.23 29.54 95.89 10.13 106.54 29.54"/><polyline class="cls-1" points="106.54 29.54 117.19 10.13 127.85 29.54"/><polyline class="cls-1" points="127.85 29.54 138.5 10.13 149.16 29.54"/><polyline class="cls-1" points="149.16 29.54 159.81 10.13 170.46 29.54"/><polyline class="cls-1" points="170.46 29.54 181.12 10.13 191.77 29.54"/><polyline class="cls-1" points="191.77 29.54 202.43 10.13 213.08 29.54"/><polyline class="cls-1" points="213.08 29.54 223.73 10.13 234.39 29.54"/><polyline class="cls-1" points="234.39 29.54 245.04 10.13 255.7 29.54"/><polyline class="cls-1" points="298.35 29.54 309.01 10.13 319.66 29.54"/><line class="cls-1" y1="29.49" x2="320" y2="29.49"/><polyline class="cls-1" points="255.7 29.54 266.35 10.13 277 29.54"/><polyline class="cls-1" points="277 29.54 287.66 10.13 298.31 29.54"/></svg>