<svg id="Layer_1" data-name="Layer 1" xmlns="http://www.w3.org/2000/svg" viewBox="0 0 497 162.44"><defs><style>.cls-1{fill:#90d7dc;}.cls-2{fill:#72c8d0;}.cls-3{fill:none;stroke:#fff;stroke-miterlimit:10;stroke-dasharray:7;}</style></defs><title>header</title><path class="cls-1" d="M1632,66.31V0.07H1312V66.31c43.19-15.9,99-25.3,160-25.3S1588.81,50.41,1632,66.31Z" transform="translate(-1223.5 -0.07)"/><path class="cls-2" d="M1312,66.31c-53.82,19.81-88,49.73-88,84.2a54.92,54.92,0,0,0,1.18,11.26c6.42-30,38.81-56.7,86.85-74.7h0V66.31Z" transform="translate(-1223.5 -0.07)"/><path class="cls-2" d="M1632,66.31V87.07h0c48,18,80.43,44.7,86.85,74.7a53.69,53.69,0,0,0,1.18-11.13C1720,116.17,1685.82,86.12,1632,66.31Z" transform="translate(-1223.5 -0.07)"/><path class="cls-2" d="M1632,66.31c-43.19-15.9-99-25.3-160-25.3s-116.81,9.4-160,25.3V87.07h0c43.18-17,99-26.54,160-26.54s116.79,9.54,160,26.54h0V66.31Z" transform="translate(-1223.5 -0.07)"/><path class="cls-3" d="M1720,162.51C1720,100.38,1609,50,1472,50s-248,50.37-248,112.5" transform="translate(-1223.5 -0.07)"/></svg>