<svg xmlns="http://www.w3.org/2000/svg" viewBox="0 0 28.2 32.67"><defs><style>.cls-1{fill:#3a4444;}.cls-2{fill:#fff;}</style></defs><title>roadNum</title><g id="Layer_2" data-name="Layer 2"><g id="Layer_1-2" data-name="Layer 1"><path class="cls-1" d="M14.1,32.16a15,15,0,0,0-4.76-2.55c-3.14-1.24-6.39-2.52-8.19-6.74C-.53,18.95.89,15.48,2,12.7A12.14,12.14,0,0,0,3.11,9.22,4.64,4.64,0,0,0,1.06,5,21,21,0,0,1,5.49.53,6.9,6.9,0,0,0,9.76,2,6.87,6.87,0,0,0,14.1.49,6.87,6.87,0,0,0,18.43,2,6.9,6.9,0,0,0,22.71.53,21,21,0,0,1,27.14,5a4.64,4.64,0,0,0-2,4.23,12.14,12.14,0,0,0,1.08,3.48c1.14,2.78,2.56,6.25.88,10.18-1.8,4.22-5,5.5-8.19,6.74A15,15,0,0,0,14.1,32.16Z"/><path class="cls-2" d="M14.1,32.67l-.25-.23A14.73,14.73,0,0,0,9.2,30C6,28.69,2.66,27.38.8,23c-1.74-4.07-.29-7.62.88-10.47a11.93,11.93,0,0,0,1-3.36A4.24,4.24,0,0,0,.85,5.3L.53,5.09l.22-.31A21.3,21.3,0,0,1,5.27.23L5.5.06l.23.18a6.54,6.54,0,0,0,4,1.43h0A6.48,6.48,0,0,0,13.86.2L14.1,0l.24.2a6.47,6.47,0,0,0,4.09,1.46h0a6.54,6.54,0,0,0,4-1.43L22.7.06l.23.17a21.31,21.31,0,0,1,4.52,4.54l.22.31-.32.21a4.24,4.24,0,0,0-1.88,3.9,11.93,11.93,0,0,0,1,3.36c1.17,2.85,2.62,6.4.88,10.47C25.53,27.39,22.21,28.69,19,30a14.74,14.74,0,0,0-4.65,2.48ZM1.58,4.91a5,5,0,0,1,1.9,4.34,12.35,12.35,0,0,1-1.1,3.59c-1.11,2.72-2.5,6.1-.89,9.89,1.74,4.07,4.91,5.33,8,6.53a16.37,16.37,0,0,1,4.63,2.4,16.35,16.35,0,0,1,4.62-2.4c3.08-1.21,6.25-2.46,8-6.54,1.61-3.78.23-7.17-.88-9.89a12.34,12.34,0,0,1-1.1-3.6,5,5,0,0,1,1.9-4.34A20.71,20.71,0,0,0,22.7,1a7.25,7.25,0,0,1-4.27,1.41h0A7.26,7.26,0,0,1,14.1,1,7.26,7.26,0,0,1,9.76,2.41h0A7.25,7.25,0,0,1,5.49,1,20.7,20.7,0,0,0,1.58,4.91Z"/><path class="cls-2" d="M16.09,9.42a.46.46,0,0,1,.33.13.44.44,0,0,1,.14.33.47.47,0,0,1-.47.47H11v3.26h2.31a3.86,3.86,0,0,1,3.85,3.84,3.85,3.85,0,0,1-3.85,3.85,3.82,3.82,0,0,1-3.84-3.85.46.46,0,1,1,.92,0,2.82,2.82,0,0,0,.85,2.07,2.87,2.87,0,0,0,2.07.86,2.94,2.94,0,0,0,2.92-2.93,2.76,2.76,0,0,0-.86-2.05,2.8,2.8,0,0,0-2.06-.87H10.56a.46.46,0,0,1-.46-.46V9.88a.46.46,0,0,1,.46-.46Z"/></g></g></svg>